<svg xmlns="http://www.w3.org/2000/svg" viewBox="0 0 842.02 405.29"><defs><style>.b69ddd88-266e-45a3-8bdc-af6339771550{fill:#bababa;}.ee7d58e6-b07b-4cc7-abbe-e3a7043b71c6{fill:#d3d3d3;}.a073abd0-565e-42c7-a424-db196a8e2135,.a518ea9d-55ab-47d8-9ae3-6d3004342c42{fill:#e41170;}.ea9e4d72-3576-4517-a9bd-f24a0ad0c9b2{fill:#fff;}.a073abd0-565e-42c7-a424-db196a8e2135{font-size:202px;font-family:Comfortaa-Regular, Comfortaa;}.a7077bac-6353-4a76-bba8-17806b8c3028{letter-spacing:-0.03em;}</style></defs><title>logo-text</title><g id="ac92dc7a-6348-4081-bb10-d6e0859db08d" data-name="Layer 2"><g id="aa958573-26a9-4f95-b3b9-059c87c78b81" data-name="Layer 1"><ellipse class="b69ddd88-266e-45a3-8bdc-af6339771550" cx="89.98" cy="382.3" rx="69.83" ry="13.26"/><ellipse class="ee7d58e6-b07b-4cc7-abbe-e3a7043b71c6" cx="90.03" cy="380.23" rx="69.83" ry="13.26"/><path class="ee7d58e6-b07b-4cc7-abbe-e3a7043b71c6" d="M180,110.3c.81,49.13-38.83,89.63-88.55,90.45S.81,162.41,0,113.28"/><path class="ee7d58e6-b07b-4cc7-abbe-e3a7043b71c6" d="M0,113.28H0A345.18,345.18,0,0,1,28.59,4.71L30.7,0,75.39.8c3.9.13,30.81.14,34.71,0L149.92,0l5.74,13.58A326.78,326.78,0,0,1,180,110.3h0"/><path class="ee7d58e6-b07b-4cc7-abbe-e3a7043b71c6" d="M63.69,196.91l6.21,4.31A36.54,36.54,0,0,1,80.3,212.3,5.4,5.4,0,0,1,81,214l.73,3.66a5.27,5.27,0,0,1,.1.89l2.44,119.77a45.22,45.22,0,0,1-10.29,30.44l-3.09,3.74a5.3,5.3,0,0,0,4.09,8.67h1.92a5.55,5.55,0,0,0,1-.09l1.87-.36c5.33-1,12.51-1.93,19.09.45h0c3.53.22,2.74.2,6.08.58h0a5.31,5.31,0,0,0,4.77-8.56l-5.86-7.39a37.31,37.31,0,0,1-8.07-24L97.81,218.9a5.75,5.75,0,0,1,.1-.92l.79-3.93a6.4,6.4,0,0,1,.37-1.2c2.41-5.57,3.53-7.16,7.91-11.41a5.6,5.6,0,0,1,1.14-.84l5.21-2.86"/><path class="a518ea9d-55ab-47d8-9ae3-6d3004342c42" d="M174.92,107c.77,46.34-36.63,84.53-83.52,85.31S5.87,156.19,5.11,109.85"/><path class="ea9e4d72-3576-4517-a9bd-f24a0ad0c9b2" d="M174.92,107h0a308.39,308.39,0,0,0-23-91.23L146.51,3l-36.7.7c-3.68.13-31.37.12-35,0L34.06,3l-2,4.44a325.81,325.81,0,0,0-27,102.41h0"/><text class="a073abd0-565e-42c7-a424-db196a8e2135" transform="translate(217.04 346.91)"><tspan class="a7077bac-6353-4a76-bba8-17806b8c3028">l</tspan><tspan x="50.9" y="0">otteri</tspan></text></g></g></svg>