<svg xmlns="http://www.w3.org/2000/svg" viewBox="0 0 180.05 395.56"><defs><style>.ece6c85f-5920-40d8-aa19-e1e9943c2f50{fill:#bababa;}.b0b1c79b-a6d5-4af7-afb6-65865234269e{fill:#d3d3d3;}.ff7167cd-95ce-4416-84b9-e3ad54c3878e{fill:#e41170;}.a1efa08f-a408-4613-80dd-6828d09cdc32{fill:#fff;}</style></defs><title>wine-glass</title><g id="f65d2854-0553-4464-b84d-aa98f83e3a18" data-name="Layer 2"><g id="e9c2e209-6a51-4cd1-a6ba-cb658a1cd5aa" data-name="Layer 2"><ellipse class="ece6c85f-5920-40d8-aa19-e1e9943c2f50" cx="89.98" cy="382.3" rx="69.83" ry="13.26"/><ellipse class="b0b1c79b-a6d5-4af7-afb6-65865234269e" cx="90.03" cy="380.23" rx="69.83" ry="13.26"/></g><g id="b5e7e75e-bf15-481a-8d78-2c8193009718" data-name="Layer 3"><path class="b0b1c79b-a6d5-4af7-afb6-65865234269e" d="M180,110.3c.81,49.13-38.83,89.63-88.55,90.45S.81,162.41,0,113.28"/><path class="b0b1c79b-a6d5-4af7-afb6-65865234269e" d="M0,113.28H0A345.18,345.18,0,0,1,28.59,4.71L30.7,0,83.39,1.8q5.85.19,11.71,0L149.92,0l5.74,13.58A326.78,326.78,0,0,1,180,110.3h0"/><path class="b0b1c79b-a6d5-4af7-afb6-65865234269e" d="M63.69,196.91l6.21,4.31A36.54,36.54,0,0,1,80.3,212.3,5.4,5.4,0,0,1,81,214l.73,3.66a5.27,5.27,0,0,1,.1.89l2.44,119.77a45.22,45.22,0,0,1-10.29,30.44l-3.09,3.74a5.3,5.3,0,0,0,4.09,8.67h1.92a5.55,5.55,0,0,0,1-.09l1.87-.36c5.33-1,12.51-1.93,19.09.45h0c3.53.22,2.74.2,6.08.58h0a5.31,5.31,0,0,0,4.77-8.56l-5.86-7.39a37.31,37.31,0,0,1-8.07-24L97.81,218.9a5.75,5.75,0,0,1,.1-.92l.79-3.93a6.4,6.4,0,0,1,.37-1.2c2.41-5.57,3.53-7.16,7.91-11.41a5.6,5.6,0,0,1,1.14-.84l5.21-2.86"/><path class="ff7167cd-95ce-4416-84b9-e3ad54c3878e" d="M174.92,107c.77,46.34-36.63,84.53-83.52,85.31S5.87,156.19,5.11,109.85"/><path class="a1efa08f-a408-4613-80dd-6828d09cdc32" d="M174.92,107h0a308.39,308.39,0,0,0-23-91.23L146.51,3,94.81,4.7c-3.68.13-7.37.12-11,0L34.06,3l-2,4.44a325.81,325.81,0,0,0-27,102.41h0"/></g></g></svg>